<?xml version="1.0" encoding="UTF-8"?>
<svg width="35px" height="35px" viewBox="0 0 35 35" version="1.1" xmlns="http://www.w3.org/2000/svg" xmlns:xlink="http://www.w3.org/1999/xlink">
    <!-- Generator: Sketch 47.1 (45422) - http://www.bohemiancoding.com/sketch -->
    <title>Chat</title>
    <desc>Created with Sketch.</desc>
    <defs></defs>
    <g id="Page-3" stroke="none" stroke-width="1" fill="none" fill-rule="evenodd">
        <g id="Chat">
            <path d="M29,12 L29,3 C29,1.34314575 27.6568542,-3.04359188e-16 26,0 L3,0 L3,0 C1.34314575,3.04359188e-16 -2.02906125e-16,1.34314575 0,3 L0,3 L0,17 C2.02906125e-16,18.6568542 1.34314575,20 3,20 L4,20 L6,24 L8,20 L8,15 C8,13.3431458 9.34314575,12 11,12 L29,12 Z" id="Combined-Shape" fill="#FFFFFF"></path>
            <path d="M30.5,33.7 L31.827725,30.5134601 L32.1409498,30.4961072 C33.4609475,30.4229786 34.5,29.3283151 34.5,28 L34.5,16 C34.5,14.6192881 33.3807119,13.5 32,13.5 L12,13.5 C10.6192881,13.5 9.5,14.6192881 9.5,16 L9.5,28 C9.5,29.3807119 10.6192881,30.5 12,30.5 L29.1666667,30.5 L30.5,33.7 Z" id="Combined-Shape" stroke="#FFFFFF"></path>
            <circle id="Oval" fill="#FFFFFF" cx="15" cy="22" r="2"></circle>
            <circle id="Oval" fill="#FFFFFF" cx="22" cy="22" r="2"></circle>
            <circle id="Oval" fill="#FFFFFF" cx="29" cy="22" r="2"></circle>
        </g>
    </g>
</svg>