<?xml version="1.0" encoding="UTF-8"?>
<svg width="25px" height="25px" viewBox="0 0 25 25" version="1.1" xmlns="http://www.w3.org/2000/svg" xmlns:xlink="http://www.w3.org/1999/xlink">
    <!-- Generator: Sketch 47.1 (45422) - http://www.bohemiancoding.com/sketch -->
    <title>Search@2x</title>
    <desc>Created with Sketch.</desc>
    <defs></defs>
    <g id="W/-Color" stroke="none" stroke-width="1" fill="none" fill-rule="evenodd">
        <g id="Manager---Task" transform="translate(-478.000000, -13.000000)" fill="#FFFFFF">
            <g id="Glyphs/Search" transform="translate(478.000000, 13.000000)">
                <path d="M24.5412404,22.4536709 L17.6965976,15.6063495 C18.9235096,13.9329631 19.5807615,11.909879 19.5715976,9.83492092 C19.5481874,4.4185919 15.1673511,0.0313829281 9.75106188,9.94961183e-05 C7.15906216,-0.0116278088 4.67002863,1.01377194 2.83844757,2.84786869 C1.0068665,4.68196543 -0.0151159439,7.17240403 0.00016901825,9.76438521 C0.0235792159,15.1812073 4.40481521,19.568816 9.82159759,19.6000995 C11.9050087,19.6091292 13.9354842,18.9442057 15.6099904,17.7045638 L15.6171333,17.6992066 L22.4555262,24.5411709 C22.8252563,24.9290522 23.3761793,25.0860573 23.8948385,24.9513543 C24.4134976,24.8166514 24.8183964,24.4114059 24.9526555,23.8926317 C25.0869146,23.3738575 24.929438,22.823069 24.5412404,22.4536709 L24.5412404,22.4536709 Z M9.81445473,17.6393852 C5.48126556,17.6144584 1.97633375,14.1047472 1.95731188,9.77152807 C1.9456165,7.69821168 2.76326972,5.70626092 4.2282587,4.2390919 C5.69324768,2.77192288 7.68398039,1.95130856 9.75731188,1.95992092 C14.090501,1.98484769 17.5954329,5.49455895 17.6144547,9.82777807 C17.6261501,11.9010945 16.8084969,13.8930452 15.3435079,15.3602142 C13.8785189,16.8273833 11.8877862,17.6479976 9.81445473,17.6393852 Z" id="Search"></path>
            </g>
        </g>
    </g>
</svg>