<?xml version="1.0" encoding="UTF-8"?>
<svg width="35px" height="35px" viewBox="0 0 35 35" version="1.1" xmlns="http://www.w3.org/2000/svg" xmlns:xlink="http://www.w3.org/1999/xlink">
    <!-- Generator: Sketch 47.1 (45422) - http://www.bohemiancoding.com/sketch -->
    <title>Settings</title>
    <desc>Created with Sketch.</desc>
    <defs></defs>
    <g id="Page-3" stroke="none" stroke-width="1" fill="none" fill-rule="evenodd">
        <g id="Settings" fill="#FFFFFF">
            <path d="M8.41187612,1.78972622 C12.4942934,2.06226095e-15 8.40956434,1.82578951 12.4942934,7.10542736e-15 C14.1367462,5.13149795 20.3983083,5.04350101 21.8133105,7.10542736e-15 C26.0807256,1.33897827 21.8133105,7.10542736e-15 26.0807256,1.33897827 C23.6057081,6.97524873 28.4533577,10.0006597 32.9143125,7.60429015 C34.9955684,12.1551975 32.9191218,7.65001266 35,12.1250353 C28.321732,13.583613 30.8065747,21.7935608 35,21.3906294 C33.3952619,26.263816 34.9945284,21.4091867 33.390264,26.2689811 C27.2205928,22.4709889 22.8665471,28.611947 26.8102346,32.958792 C21.812502,34.9903083 26.8176936,32.9667567 21.8133105,35 C19.5069027,28.2341562 12.7575549,31.1160026 12.4942934,35 C7.90965429,32.9598004 12.4890681,35.0314542 7.90844409,32.958792 C10.2991495,27.9509189 6.83342627,24.0403422 1.66753007,26.2689811 C2.10787334e-14,21.3906294 1.6945764,26.2689811 -3.55271368e-15,21.3906294 C6.74994534,19.4640312 4.19500164,12.6794564 -3.55271368e-15,12.1250353 C2.33896165,7.60429015 2.10787334e-14,12.1250353 2.33896165,7.60429015 C7.26574287,9.74019215 10.7836536,5.56626362 8.41187612,1.78972622 Z M17.132393,24.0670758 C21.0121267,24.0670758 24.1572723,20.9336733 24.1572723,17.0684254 C24.1572723,13.2031776 21.0121267,10.0697751 17.132393,10.0697751 C13.2526593,10.0697751 10.1075138,13.2031776 10.1075138,17.0684254 C10.1075138,20.9336733 13.2526593,24.0670758 17.132393,24.0670758 Z" id="Combined-Shape"></path>
        </g>
    </g>
</svg>