<?xml version="1.0" encoding="UTF-8"?>
<svg width="25px" height="25px" viewBox="0 0 25 25" version="1.1" xmlns="http://www.w3.org/2000/svg" xmlns:xlink="http://www.w3.org/1999/xlink">
    <!-- Generator: Sketch 47.1 (45422) - http://www.bohemiancoding.com/sketch -->
    <title>Combined Shape</title>
    <desc>Created with Sketch.</desc>
    <defs></defs>
    <g id="W/-Color" stroke="none" stroke-width="1" fill="none" fill-rule="evenodd">
        <g id="Manager---Task" transform="translate(-521.000000, -13.000000)" fill="#FFFFFF">
            <path d="M522.277382,31.7622918 C521.800786,30.9006899 521.419489,29.978444 521.147822,29.0099641 C522.815667,28.8957082 524.133358,27.4988588 524.133358,25.7924863 C524.133358,24.0360021 522.737136,22.6074878 521,22.5682854 C521.304465,21.2506591 521.809687,20.010498 522.481489,18.8821742 C522.963949,19.1743629 523.529138,19.3424311 524.133358,19.3424311 C525.904363,19.3424311 527.340047,17.8985371 527.340047,16.1174035 C527.340047,15.5058586 527.1708,14.9340695 526.876842,14.4468293 C527.932211,13.8063891 529.086747,13.3145125 530.311816,13 C530.507733,14.5923313 531.857776,15.8249172 533.494069,15.8249172 C535.130361,15.8249172 536.480405,14.5923313 536.676322,13 C537.749599,13.275543 538.768739,13.6872205 539.714487,14.215666 C539.326781,14.7488575 539.097909,15.4062497 539.097909,16.1174035 C539.097909,17.8985371 540.533593,19.3424311 542.304599,19.3424311 C543.077312,19.3424311 543.786191,19.0675579 544.339838,18.6097309 C545.104289,19.8242852 545.672603,21.17609 546,22.6201103 C544.505953,22.8947054 543.373495,24.2105897 543.373495,25.7924863 C543.373495,27.3248757 544.436179,28.6076426 545.860813,28.9360451 C545.555655,30.0494165 545.105831,31.102461 544.532954,32.0734433 C543.956008,31.5125992 543.170372,31.1675323 542.304599,31.1675323 C540.533593,31.1675323 539.097909,32.6114263 539.097909,34.3925598 C539.097909,35.2591647 539.437775,36.0459356 539.990769,36.625409 C538.968236,37.2306722 537.85492,37.6974178 536.676322,38 C536.480405,36.4076687 535.130361,35.1750828 533.494069,35.1750828 C531.857776,35.1750828 530.507733,36.4076687 530.311816,38 C528.994073,37.6616952 527.757938,37.118177 526.639048,36.4052887 C527.077736,35.8536137 527.340047,35.1538951 527.340047,34.3925598 C527.340047,32.6114263 525.904363,31.1675323 524.133358,31.1675323 C523.441707,31.1675323 522.8012,31.3877585 522.277382,31.7622918 Z M533.29231,30.2001471 C535.948819,30.2001471 538.102345,28.0343061 538.102345,25.3626057 C538.102345,22.6909054 535.948819,20.5250644 533.29231,20.5250644 C530.635802,20.5250644 528.482276,22.6909054 528.482276,25.3626057 C528.482276,28.0343061 530.635802,30.2001471 533.29231,30.2001471 Z" id="Combined-Shape"></path>
        </g>
    </g>
</svg>